<?xml version="1.0" encoding="utf-8"?>
<!-- Generator: Adobe Illustrator 21.0.0, SVG Export Plug-In . SVG Version: 6.00 Build 0)  -->
<svg version="1.1" id="Layer_1" xmlns="http://www.w3.org/2000/svg" xmlns:xlink="http://www.w3.org/1999/xlink" x="0px" y="0px"
	 viewBox="0 0 419 305.6" style="enable-background:new 0 0 419 305.6;" xml:space="preserve">
<style type="text/css">
	.st0{fill:url(#SVGID_1_);}
	.st1{opacity:0.1;fill:#2526BA;enable-background:new    ;}
	.st2{fill:#9DAEFC;}
	.st3{fill:#8097FC;}
	.st4{fill:#6580FC;}
	.st5{fill:#B5C3FD;}
	.st6{fill:#09FDB1;}
	.st7{fill:#FFFFFF;}
	.st8{fill:#FD5BA6;}
	.st9{fill:#2526BA;}
	.st10{fill:#FDD9EB;}
	.st11{fill:#06EAA0;}
	.st12{fill:#FD7DB6;}
</style>
<g>
	<g>
		
			<linearGradient id="SVGID_1_" gradientUnits="userSpaceOnUse" x1="353.8043" y1="28.8874" x2="162.3082" y2="282.5787" gradientTransform="matrix(1 0 0 -1 0 376.3032)">
			<stop  offset="0" style="stop-color:#C3D0FD"/>
			<stop  offset="0.5834" style="stop-color:#E4D3F2"/>
			<stop  offset="0.997" style="stop-color:#FDD7EA"/>
		</linearGradient>
		<path class="st0" d="M410.7,61.8c-18.3-46.6-74.7-74.5-122.4-56c-54.5,21.1-36.4,107.8-85.9,125.3c-26.7,9.5-66.3-25.9-93.3-31.3
			c-49.8-10-94.8,25.1-105.9,73.8C-8.1,223.1,10,289.4,64.6,302.8c64.9,16,98.8-42.3,153.2-59.1c55.9-17.2,118.1,23.4,164.3-26
			C416.3,181.2,428.8,107.9,410.7,61.8L410.7,61.8z"/>
	</g>
	<g>
		<path class="st1" d="M355.7,95.7c0-26.2-21.2-47.4-47.4-47.4c-20.3,0-37.5,12.7-44.3,30.6H92.8c-7.3,0-13.2,5.9-13.2,13.2v146.6
			c0,7.3,5.9,13.2,13.2,13.2h233.3c7.3,0,13.2-5.9,13.2-13.2V131.5C349.4,122.8,355.7,110,355.7,95.7L355.7,95.7z"/>
		<g>
			<g>
				<path class="st2" d="M326.2,235.5H92.8c-7.3,0-13.2-5.9-13.2-13.2V75.7c0-7.3,5.9-13.2,13.2-13.2h233.3
					c7.3,0,13.2,5.9,13.2,13.2v146.6C339.4,229.6,333.5,235.5,326.2,235.5z"/>
				<g>
					<path class="st3" d="M339.4,75.7v56c-8.3,7.2-19.2,11.6-31,11.6c-26.2,0-47.4-21.2-47.4-47.4c0-13,5.3-24.9,13.8-33.4h51.3
						C333.5,62.4,339.4,68.3,339.4,75.7L339.4,75.7z"/>
					<path class="st3" d="M339.4,75.7v16.7l-117.8,90.5c-3.5,2.7-7.8,4.1-12.1,4.1c-4.4,0-8.6-1.5-12.1-4.1L79.6,92.4V75.7
						c0-7.3,5.9-13.2,13.2-13.2h233.3C333.5,62.4,339.4,68.3,339.4,75.7z"/>
					<path class="st3" d="M213.5,125.6l125.9,96.7c0,7.3-5.9,13.2-13.2,13.2H92.8c-7.3,0-13.2-5.9-13.2-13.2l125.9-96.7
						C207.8,123.7,211.2,123.7,213.5,125.6L213.5,125.6z"/>
				</g>
				<path class="st4" d="M254.9,157.3l-33.2,25.5c-3.5,2.7-7.8,4.1-12.1,4.1c-4.4,0-8.6-1.5-12.1-4.1l-33.2-25.5l41.3-31.7
					c2.4-1.8,5.7-1.8,8.1,0L254.9,157.3z"/>
				<path class="st5" d="M205.5,172.3L79.6,75.7c0-7.3,5.9-13.2,13.2-13.2h233.3c7.3,0,13.2,5.9,13.2,13.2l-125.9,96.7
					C211.2,174.2,207.8,174.2,205.5,172.3z"/>
			</g>
			<g>
				<path class="st6" d="M285.6,217.9h-21.3c-1.8,0-3.3-1.5-3.3-3.3v-14.7c0-1.8,1.5-3.3,3.3-3.3h21.3c1.8,0,3.3,1.5,3.3,3.3v14.7
					C288.9,216.4,287.4,217.9,285.6,217.9z"/>
				<g>
					<g>
						<g>
							<path class="st7" d="M246.5,204.4h-18.4c-1.8,0-3.3-1.5-3.3-3.3s1.5-3.3,3.3-3.3h18.4c1.8,0,3.3,1.5,3.3,3.3
								S248.3,204.4,246.5,204.4z"/>
						</g>
					</g>
					<g>
						<g>
							<path class="st7" d="M246.5,217.9h-64.8c-1.8,0-3.3-1.5-3.3-3.3c0-1.8,1.5-3.3,3.3-3.3h64.8c1.8,0,3.3,1.5,3.3,3.3
								C249.8,216.4,248.3,217.9,246.5,217.9z"/>
						</g>
					</g>
				</g>
			</g>
			<g>
				<circle class="st8" cx="308.4" cy="79.1" r="47.4"/>
				<path class="st9" d="M308.4,129.8c27.9,0,50.7-22.7,50.7-50.7s-22.7-50.7-50.7-50.7c-27.9,0-50.7,22.7-50.7,50.7
					c0,16.3,7.7,30.7,19.6,40l-65.8,50.6c-1.2,0.9-2.8,0.9-4,0L83,74.1c0.7-4.7,4.9-8.4,9.8-8.4h151.9c1.8,0,3.3-1.5,3.3-3.3
					s-1.5-3.3-3.3-3.3H92.8c-9.1,0-16.6,7.4-16.6,16.6v146.6c0,9.1,7.4,16.6,16.6,16.6h233.3c9.1,0,16.6-7.4,16.6-16.6v-87.5
					c0-1.8-1.5-3.3-3.3-3.3c-1.8,0-3.3,1.5-3.3,3.3v80.8L249.4,149l33.7-25.9C290.6,127.3,299.2,129.8,308.4,129.8L308.4,129.8z
					 M169.6,149l-86.7,66.6V82.4L169.6,149z M336,223.8c-0.7,4.8-4.8,8.4-9.8,8.4H92.8c-5,0-9.1-3.7-9.8-8.4l92-70.7l28.4,21.8
					c1.8,1.4,3.9,2.1,6.1,2.1s4.3-0.7,6.1-2.1l28.4-21.8L336,223.8z M264.3,79.1c0-24.3,19.8-44,44-44s44,19.8,44,44s-19.8,44-44,44
					S264.3,103.4,264.3,79.1z"/>
			</g>
			<path class="st7" d="M287.7,63l6.8,16.1l-6.8,16.1c-1.1,2.7,1.6,5.5,4.4,4.3l40.8-17.4c2.7-1.1,2.7-4.9,0-6.1l-40.8-17.4
				C289.3,57.5,286.6,60.3,287.7,63z"/>
			<path class="st10" d="M309.9,82.2l-20.3,8.7l4.9-11.8l-4.9-11.8l20.4,8.7C312.4,77.1,312.4,81.2,309.9,82.2z"/>
		</g>
		<path class="st11" d="M259,31.5c-2.5,0-4.9-0.9-6.8-2.8c-3.7-3.7-3.7-9.8,0-13.6c3.7-3.7,9.8-3.7,13.6,0c3.7,3.7,3.7,9.8,0,13.6
			C264,30.6,261.5,31.5,259,31.5z M259,18.9c-0.8,0-1.5,0.3-2.1,0.9c-1.2,1.2-1.2,3.1,0,4.2c1.2,1.2,3.1,1.2,4.2,0
			c1.2-1.2,1.2-3.1,0-4.2C260.6,19.2,259.8,18.9,259,18.9z"/>
		<path class="st11" d="M184.7,281.6c-2.5,0-4.9-0.9-6.8-2.8c-3.7-3.7-3.7-9.8,0-13.6c3.7-3.7,9.8-3.7,13.6,0
			c3.7,3.7,3.7,9.8,0,13.6C189.6,280.6,187.2,281.6,184.7,281.6L184.7,281.6z M184.7,269c-0.8,0-1.5,0.3-2.1,0.9
			c-1.2,1.2-1.2,3.1,0,4.2c1.2,1.2,3.1,1.2,4.2,0c1.2-1.2,1.2-3.1,0-4.2C186.2,269.3,185.5,269,184.7,269z"/>
		<path class="st12" d="M235.2,40c-0.8,0-1.7-0.3-2.3-1l-3.9-3.9l-3.9,3.9c-1.3,1.3-3.4,1.3-4.7,0c-1.3-1.3-1.3-3.4,0-4.7l6.3-6.3
			c1.3-1.3,3.4-1.3,4.7,0l6.3,6.3c1.3,1.3,1.3,3.4,0,4.7C236.9,39.7,236,40,235.2,40z"/>
		<path class="st12" d="M331.2,269c-0.8,0-1.7-0.3-2.3-1l-3.9-3.9l-3.9,3.9c-1.3,1.3-3.4,1.3-4.7,0c-1.3-1.3-1.3-3.4,0-4.7l6.3-6.3
			c1.3-1.3,3.4-1.3,4.7,0l6.3,6.3c1.3,1.3,1.3,3.4,0,4.7C332.9,268.7,332,269,331.2,269z"/>
		<path class="st4" d="M158.4,272.1c-0.8,0-1.7-0.3-2.3-1l-3.9-3.9l-3.9,3.9c-1.3,1.3-3.4,1.3-4.7,0c-1.3-1.3-1.3-3.4,0-4.7l6.3-6.3
			c1.3-1.3,3.4-1.3,4.7,0l6.3,6.3c1.3,1.3,1.3,3.4,0,4.7C160.1,271.8,159.3,272.1,158.4,272.1z"/>
	</g>
</g>
</svg>
