<?xml version="1.0" encoding="utf-8"?>
<!-- Generator: Adobe Illustrator 21.0.0, SVG Export Plug-In . SVG Version: 6.00 Build 0)  -->
<svg version="1.1" id="Layer_1" xmlns="http://www.w3.org/2000/svg" xmlns:xlink="http://www.w3.org/1999/xlink" x="0px" y="0px"
	 viewBox="0 0 24.5 24.9" style="enable-background:new 0 0 24.5 24.9;" xml:space="preserve">
<path d="M24.5,12.4c0-6.8-5.5-12.3-12.3-12.3S0,5.7,0,12.4s5.5,12.3,12.3,12.3c0.1,0,0.1,0,0.2,0v-9.5H9.8v-3.1h2.6V9.8
	c0-2.6,1.6-4,3.9-4c1.1,0,2.1,0.1,2.4,0.1v2.7h-1.6c-1.3,0-1.5,0.6-1.5,1.5v2h3l-0.4,3.1h-2.6v9.1C20.8,22.7,24.5,18,24.5,12.4z"/>
</svg>
