<?xml version="1.0" encoding="utf-8"?>
<!-- Generator: Adobe Illustrator 21.0.0, SVG Export Plug-In . SVG Version: 6.00 Build 0)  -->
<svg version="1.1" id="Layer_1" xmlns="http://www.w3.org/2000/svg" xmlns:xlink="http://www.w3.org/1999/xlink" x="0px" y="0px"
	 viewBox="0 0 24.5 24.9" style="enable-background:new 0 0 24.5 24.9;" xml:space="preserve">
<g>
	<g>
		<g>
			<g>
				<circle cx="12.3" cy="12.3" r="2.3"/>
			</g>
			<g>
				<g>
					<path d="M17.8,8.1c-0.1-0.3-0.3-0.6-0.5-0.8c-0.2-0.2-0.5-0.4-0.8-0.5c-0.2-0.1-0.6-0.2-1.3-0.2c-0.7,0-1,0-2.8,0
						c-1.9,0-2.1,0-2.8,0c-0.7,0-1.1,0.1-1.3,0.2C7.8,6.9,7.5,7.1,7.3,7.3C7.1,7.5,6.9,7.8,6.8,8.1C6.7,8.4,6.6,8.7,6.5,9.4
						c0,0.7,0,1,0,2.8c0,1.9,0,2.1,0,2.8c0,0.7,0.1,1.1,0.2,1.3c0.1,0.3,0.3,0.6,0.5,0.8c0.2,0.2,0.5,0.4,0.8,0.5
						C8.4,17.9,8.7,18,9.4,18c0.7,0,1,0,2.8,0c1.9,0,2.1,0,2.8,0c0.7,0,1.1-0.1,1.3-0.2c0.6-0.2,1.1-0.7,1.3-1.3
						c0.1-0.2,0.2-0.6,0.2-1.3c0-0.7,0-1,0-2.8c0-1.9,0-2.1,0-2.8C18,8.7,17.9,8.4,17.8,8.1z M12.3,15.9c-2,0-3.6-1.6-3.6-3.6
						s1.6-3.6,3.6-3.6c2,0,3.6,1.6,3.6,3.6S14.3,15.9,12.3,15.9z M16,9.4c-0.5,0-0.8-0.4-0.8-0.8s0.4-0.8,0.8-0.8
						c0.5,0,0.8,0.4,0.8,0.8C16.9,9,16.5,9.4,16,9.4z"/>
				</g>
			</g>
			<g>
				<g>
					<path d="M12.3,0C5.5,0,0,5.5,0,12.3s5.5,12.3,12.3,12.3S24.5,19,24.5,12.3S19,0,12.3,0z M19.3,15.2c0,0.7-0.2,1.3-0.3,1.7
						c-0.4,0.9-1.1,1.7-2.1,2.1c-0.4,0.2-1,0.3-1.7,0.3c-0.8,0-1,0-2.9,0c-1.9,0-2.2,0-2.9,0c-0.7,0-1.3-0.2-1.7-0.3
						c-0.5-0.2-0.9-0.5-1.2-0.8c-0.4-0.4-0.6-0.8-0.8-1.2c-0.2-0.4-0.3-1-0.3-1.7c0-0.8,0-1,0-2.9s0-2.2,0-2.9
						c0-0.7,0.2-1.3,0.3-1.7C5.8,7.2,6,6.8,6.4,6.4C6.8,6,7.2,5.8,7.7,5.6c0.4-0.2,1-0.3,1.7-0.3c0.8,0,1,0,2.9,0s2.2,0,2.9,0
						c0.7,0,1.3,0.2,1.7,0.3c0.5,0.2,0.9,0.5,1.2,0.8c0.4,0.4,0.6,0.8,0.8,1.2c0.2,0.4,0.3,1,0.3,1.7c0,0.8,0,1,0,2.9
						S19.3,14.4,19.3,15.2z"/>
				</g>
			</g>
		</g>
		<g>
			<path d="M24.5,54.3C24.5,47.5,19,42,12.3,42S0,47.5,0,54.3s5.5,12.3,12.3,12.3c0.1,0,0.1,0,0.2,0V57H9.8v-3.1h2.6v-2.3
				c0-2.6,1.6-4,3.9-4c1.1,0,2.1,0.1,2.4,0.1v2.7h-1.6c-1.3,0-1.5,0.6-1.5,1.5v2h3L18.3,57h-2.6v9.1C20.8,64.6,24.5,59.9,24.5,54.3z
				"/>
		</g>
	</g>
</g>
</svg>
