<?xml version="1.0" encoding="utf-8"?>
<!-- Generator: Adobe Illustrator 21.0.0, SVG Export Plug-In . SVG Version: 6.00 Build 0)  -->
<svg version="1.1" id="Layer_1" xmlns="http://www.w3.org/2000/svg" xmlns:xlink="http://www.w3.org/1999/xlink" x="0px" y="0px"
	 viewBox="0 0 30 39.7" style="enable-background:new 0 0 30 39.7;" xml:space="preserve">
<style type="text/css">
	.st0{fill:#808080;}
</style>
<g>
	<g>
		<path class="st0" d="M25.4,33.8c-0.6-0.4-1.5-0.7-2.6-1c-0.8-0.2-1.7-0.4-2.6-0.5c0.8-0.8,1.7-1.7,2.6-2.7
			C27.6,24.3,30,19.4,30,15c0-8.3-6.7-15-15-15S0,6.7,0,15c0,4.4,2.4,9.3,7.2,14.7c0.9,1,1.7,1.9,2.6,2.7c-0.9,0.1-1.8,0.3-2.6,0.5
			c-1.1,0.3-2,0.6-2.6,1c-1.2,0.7-1.4,1.5-1.4,2c0,0.6,0.2,1.4,1.4,2c0.6,0.4,1.5,0.7,2.6,1c2.1,0.5,4.9,0.8,7.8,0.8
			s5.7-0.3,7.8-0.8c1.1-0.3,2-0.6,2.6-1c1.2-0.7,1.4-1.5,1.4-2C26.8,35.3,26.6,34.5,25.4,33.8z M2.3,15C2.3,8,8,2.3,15,2.3
			S27.7,8,27.7,15c0,8-9.9,16.7-12.7,18.9C12.2,31.7,2.3,23,2.3,15L2.3,15z M21.7,36.8c-1.8,0.4-4.2,0.6-6.7,0.6s-4.8-0.2-6.7-0.6
			c-1.5-0.3-2.3-0.7-2.7-0.9c0.4-0.2,1.2-0.6,2.7-0.9c1.1-0.2,2.4-0.4,3.7-0.5c1.3,1.1,2.2,1.8,2.2,1.9l0.7,0.5l0.7-0.5
			c0.1-0.1,1-0.7,2.2-1.9c1.4,0.1,2.6,0.3,3.7,0.5c1.5,0.3,2.3,0.7,2.7,0.9C23.9,36.1,23.1,36.5,21.7,36.8z"/>
		<path class="st0" d="M24.2,15c0-5.1-4.1-9.2-9.2-9.2S5.8,10,5.8,15c0,5.1,4.1,9.2,9.2,9.2S24.2,20.1,24.2,15z M8.2,15
			c0-3.8,3.1-6.8,6.8-6.8s6.8,3.1,6.8,6.8s-3.1,6.8-6.8,6.8S8.2,18.8,8.2,15L8.2,15z"/>
		<path class="st0" d="M16.2,18.9v-2.7h2.7v-2.3h-2.7v-2.7h-2.3v2.7h-2.7v2.3h2.7v2.7L16.2,18.9z"/>
	</g>
</g>
</svg>
